<?xml version="1.0" encoding="UTF-8" standalone="no"?>
<!-- Created with Inkscape (http://www.inkscape.org/) -->

<svg
   xmlns:dc="http://purl.org/dc/elements/1.1/"
   xmlns:cc="http://creativecommons.org/ns#"
   xmlns:rdf="http://www.w3.org/1999/02/22-rdf-syntax-ns#"
   xmlns:svg="http://www.w3.org/2000/svg"
   xmlns="http://www.w3.org/2000/svg"
   xmlns:sodipodi="http://sodipodi.sourceforge.net/DTD/sodipodi-0.dtd"
   xmlns:inkscape="http://www.inkscape.org/namespaces/inkscape"
   version="1.1"
   width="744.09448"
   height="1052.3622"
   id="svg2"
   inkscape:version="0.48.2 r9819"
   sodipodi:docname="clownFish2.svg">
  <sodipodi:namedview
     pagecolor="#ffffff"
     bordercolor="#666666"
     borderopacity="1"
     objecttolerance="10"
     gridtolerance="10"
     guidetolerance="10"
     inkscape:pageopacity="0"
     inkscape:pageshadow="2"
     inkscape:window-width="942"
     inkscape:window-height="833"
     id="namedview7"
     showgrid="false"
     inkscape:zoom="2.2399618"
     inkscape:cx="131.25781"
     inkscape:cy="121.14085"
     inkscape:window-x="0"
     inkscape:window-y="0"
     inkscape:window-maximized="0"
     inkscape:current-layer="svg2" />
  <defs
     id="defs4" />
  <metadata
     id="metadata7">
    <rdf:RDF>
      <cc:Work
         rdf:about="">
        <dc:format>image/svg+xml</dc:format>
        <dc:type
           rdf:resource="http://purl.org/dc/dcmitype/StillImage" />
        <dc:title></dc:title>
      </cc:Work>
    </rdf:RDF>
  </metadata>
  <path
     style="fill:none;stroke:#000000;stroke-width:1px;stroke-linecap:butt;stroke-linejoin:miter;stroke-opacity:1"
     d="m 91.519418,1002.8074 -3.571489,-4.91087 -4.910798,-4.01793 -4.464362,-3.57149 -4.017926,-4.01792 -6.696543,-4.46436 -6.250106,-2.67862 -6.696543,-1.33931 -9.821596,-0.44644 -6.696543,0 -8.482288,1.78575 -8.482287,4.01792 -7.589415,6.25011 -4.9107983,5.80367 -2.6786171,6.69659 -3.1250533,9.3752 1.3393086,8.0358 3.1250533,3.5715 5.8036708,4.4644 8.482287,3.125 8.482288,2.2322 8.928723,0.4464 9.37516,2.2322 9.37516,-0.8929 11.607341,-3.5715 9.37516,-4.4643 6.696543,-4.4644 5.80367,-4.9108 2.678617,-4.9108 z"
     id="path2984"
     inkscape:connector-curvature="0" />
</svg>
