<?xml version="1.0" encoding="utf-8"?>
<!-- Generator: Adobe Illustrator 12.0.0, SVG Export Plug-In . SVG Version: 6.00 Build 51448)  -->
<!DOCTYPE svg PUBLIC "-//W3C//DTD SVG 1.1//EN" "http://www.w3.org/Graphics/SVG/1.1/DTD/svg11.dtd" [
	<!ENTITY ns_svg "http://www.w3.org/2000/svg">
	<!ENTITY ns_xlink "http://www.w3.org/1999/xlink">
]>
<svg  version="1.1" id="Layer_1" xmlns="&ns_svg;" xmlns:xlink="&ns_xlink;" width="276.545" height="222.581"
	 viewBox="0 0 276.545 222.581" overflow="visible" enable-background="new 0 0 276.545 222.581" xml:space="preserve">
<g>
	<g>
		<path fill="none" d="M56.075,143.271c-18.604,13.954-46.512,66.667-11.628,75.969c14.729,3.876,41.085,1.55,53.488-6.202
			c18.604-12.403,24.806-32.558,32.558-51.938"/>
		<path d="M55.11,142.132c-12.191,9.361-20.934,24.48-25.818,38.824c-4.42,12.979-5.199,29.644,8.423,37.245
			c7.949,4.435,18.24,4.563,27.073,4.297c10.134-0.305,20.548-1.975,29.887-6.045c21.276-9.273,29.383-35.141,37.219-54.834
			c0.713-1.793-2.09-2.82-2.8-1.036c-7.511,18.877-14.616,41.686-33.663,52.178c-7.927,4.367-17.593,5.772-26.483,6.535
			c-9.158,0.785-19.431,0.667-28.061-2.854c-14.953-6.103-12.461-24.224-8.087-36.484c4.678-13.111,13.066-26.967,24.24-35.547
			C58.567,143.236,56.634,140.962,55.11,142.132L55.11,142.132z"/>
	</g>
</g>
<g>
	<g>
		<path fill="none" d="M129.719,162.65c24.031,24.031,59.69,30.233,92.248,30.233c20.93,0,67.441-6.977,48.837-41.085
			c-13.178-24.806-55.814-29.458-79.845-31.783c-9.302-0.775-23.256,2.326-29.458-6.201"/>
		<path d="M128.581,163.616c17.819,17.487,41.447,25.792,65.796,29.08c18.356,2.478,37.826,2.883,55.863-1.912
			c13.012-3.459,27.271-11.235,26.253-26.627c-1.294-19.584-20.837-31.301-37.33-36.916c-12.058-4.105-24.81-6.109-37.42-7.598
			c-5.996-0.708-11.929-1.317-17.973-1.217c-7.311,0.121-16.063,0.708-21.13-5.578c-1.208-1.499-3.485,0.432-2.276,1.931
			c6.491,8.053,17.703,6.587,26.927,6.583c9.48-0.004,19.307,1.728,28.631,3.298c20.412,3.436,44.796,10.005,54.715,30.088
			c3.931,7.959,4.284,16.897-2.185,23.54c-5.596,5.745-14.025,8.458-21.61,10.286c-19.345,4.66-40.398,3.33-59.808-0.021
			c-20.8-3.591-40.961-11.935-56.177-26.868C129.496,160.35,127.204,162.265,128.581,163.616L128.581,163.616z"/>
	</g>
</g>
<g>
	<g>
		<path fill="none" d="M159.176,113.038c3.876-10.078,19.38-17.83,25.582-26.356c12.403-16.279,17.83-29.458,17.83-49.612
			c0.775-17.055,3.876-27.907-14.729-33.333c-11.628-3.101-24.031-3.101-35.659,1.55c-26.356,10.078-41.085,61.24-50.388,86.822"/>
		<path d="M160.576,113.556c4.578-10.687,16.713-15.641,23.94-24.202c7.555-8.949,13.691-19.542,16.917-30.825
			c3.07-10.739,2.953-22.416,3.297-33.508c0.235-7.582-1.265-14.43-7.794-18.951c-9.847-6.817-24.88-6.981-36.154-4.893
			c-9.779,1.811-17.815,6.658-24.469,13.913c-13.767,15.009-21.311,35.607-28.129,54.443c-2.653,7.331-5.118,14.728-7.772,22.058
			c-0.656,1.813,2.145,2.845,2.8,1.036c6.896-19.051,12.919-38.48,22.415-56.461c4.528-8.574,9.977-16.93,17.279-23.4
			c10.163-9.004,24.751-10.796,37.754-9.018c6.056,0.828,12.89,2.577,17.343,7.05c3.08,3.094,3.677,7.653,3.771,11.806
			c0.108,4.771-0.439,9.565-0.673,14.326c-0.345,7.016-0.671,13.722-2.467,20.564c-3.083,11.749-10.193,24.114-18.935,32.563
			c-7.446,7.196-17.675,12.549-21.923,22.465C157.016,114.295,159.821,115.317,160.576,113.556L160.576,113.556z"/>
	</g>
</g>
<g>
	<g>
		<path fill="none" d="M100.261,91.333C75.455,78.93,42.122,54.898,12.664,61.1c-21.705,4.651-6.977,27.907,4.651,37.209
			c7.752,5.426,51.938,27.907,38.76,43.411"/>
		<path d="M100.779,89.933C79.597,79.244,59.639,65.437,36.172,60.134c-13.207-2.984-42.272-2.701-35.03,18.467
			c2.493,7.286,7.42,13.906,13.111,19.031c4.479,4.034,10.144,6.753,15.229,9.941c8.189,5.134,35.34,20.772,25.372,33.291
			c-1.201,1.508,1.25,3.211,2.444,1.712c8.542-10.728-5.369-22.489-13.153-28.545c-10.719-8.338-24.207-13.479-33.004-24.023
			C6.621,84.591,0.203,74.916,4.229,67.693c2.444-4.386,8.544-5.243,12.997-5.816c6.215-0.801,12.569-0.025,18.665,1.229
			C59,67.858,79.009,82.269,99.743,92.732C101.463,93.6,102.476,90.789,100.779,89.933L100.779,89.933z"/>
	</g>
</g>
</svg>
