<?xml version="1.0" encoding="utf-8"?>
<!-- Generator: Adobe Illustrator 13.0.0, SVG Export Plug-In . SVG Version: 6.00 Build 11386)  -->
<!DOCTYPE svg PUBLIC "-//W3C//DTD SVG 1.1 Tiny//EN" "http://www.w3.org/Graphics/SVG/1.1/DTD/svg11-tiny.dtd">
<svg version="1.1" baseProfile="tiny" id="Layer_1" xmlns="http://www.w3.org/2000/svg" xmlns:xlink="http://www.w3.org/1999/xlink"
	 x="0px" y="0px" width="556.19px" height="227.602px" viewBox="0 0 556.19 227.602" xml:space="preserve">
<path fill="none" stroke="#000000" d="M110.071,78.148c15.006-12.103,26.218-27.98,39.867-41.401
	c10.518-10.342,21.834-22.215,28.853-35.199c47.94-2.32,96.595-0.066,144.63-0.066c3.705,0,8.237-0.731,11.568,0.705
	c4.695,2.022,11.111,9.41,15.156,12.649c11.167,8.941,21.974,19.066,32.554,28.685c17.072,15.521,33.394,32.214,50.039,47.961"/>
<path fill="none" stroke="#000000" d="M176.066,71.982c0,27.496,2,54.717,2,82.379c0,20.873-2.385,41.203-5.333,61.621"/>
<path fill="none" stroke="#000000" d="M358.065,67.315c-3.579,12.672-1.336,28.253-1.333,41.303
	c0.002,9.021-0.305,18.208,0.785,27.179c1.033,8.501,4.782,14.627,7.818,22.236c4.354,10.91,6.29,23.791,8.764,35.244
	c1.206,5.58,3.063,12.201,2.633,18.039"/>
<path fill="none" stroke="#000000" d="M0.066,223.316c34.983,4.648,70.536,3.332,105.935,3.332c45.606,0,92.108,2.211,137.475-3.131
	c33.426-3.938,66.585-6.398,100.189-7.684c24.631-0.941,48.709-5.486,73.414-6.5c31.903-1.307,63.044-5.352,95.021-5.352
	c13.376,0,31.041-2.658,43.966,0.666"/>
<path fill="none" stroke="#000000" d="M231.399,148.648c-0.714-5.581-2.842-10.982-3.643-16.684
	c-0.857-6.102,1.667-17.291-3.207-22.062c-3.296-3.227-14.91-3.73-18.244-0.466c-5.717,5.598-3.1,18.014-2.309,24.934
	c1.453,12.711,2.658,14.277,15.931,14.277c7.032,0,14.25-0.498,21.261-0.031c2.849,0.189,7.355,2.091,9.438,0.291
	c4.708-4.068,0.356-36.568-1.198-39.651c-7.987,0.176-15.965-0.19-23.942-0.552"/>
<path fill="none" stroke="#000000" d="M296.732,217.982c-0.039-18.197-2.626-36.475-3.331-54.717
	c-0.32-8.301-1.374-18.54,0.648-26.617c2.271-9.07,4.024-9.333,13.217-9.333c7.595,0,15.188-0.001,22.783,0
	c7.148,0.001,11.226-0.42,13.994,6.669c3.486,8.928,1.865,22.374,2.021,31.961c0.255,15.621,2,31.395,2,47.371
	c0,0.221,0,0.443,0,0.666"/>
<path fill="none" stroke="#000000" d="M323.399,177.982c3.556,0,7.11,0,10.666,0"/>
<path fill="none" stroke="#000000" d="M204.066,130.648c12.308,0,34.809,3.875,45.333-1.333"/>
<path fill="none" stroke="#000000" d="M110.732,77.982c7.973,3.3,22.489-0.016,31.248,0c10.334,0.019,20.305-1.926,30.523-1.998
	c22.1-0.154,44.16-2.002,66.409-2.002c31.764,0,63.515-0.932,95.285-0.667c18.957,0.158,35.911-0.028,53.736,5.316
	c7.301,2.188,14.519,3.567,21.962,4.83c4.832,0.82,12.306-1.017,16.17,1.854"/>
</svg>
